<svg width="1280" height="720" viewBox="0 0 1280 720" xmlns="http://www.w3.org/2000/svg">
  <!-- EXACT SYNC WITH GAME CODE: groundY=468, U=14.4 -->
  <defs>
    <linearGradient id="sky" x1="0" y1="0" x2="0" y2="1">
      <stop offset="0%" stop-color="#87CEEB"/><stop offset="100%" stop-color="#E0F7FA"/>
    </linearGradient>
  </defs>
  <rect width="1280" height="720" fill="url(#sky)"/>
  <circle cx="1088" cy="108" r="75" fill="#FFD700" opacity="0.2"/>
  <circle cx="1088" cy="108" r="57.6" fill="#FFD700" opacity="0.9"/>
  <!-- Clouds -->
  <g fill="white" opacity="0.7">
    <path d="M200 150 Q 260 150, 250 120 Q 220 90, 180 100 Q 140 80, 110 110 Q 100 150, 150 150 Z" />
    <path d="M800 200 Q 860 200, 850 170 Q 820 140, 780 150 Q 740 130, 710 160 Q 700 200, 750 200 Z" transform="scale(0.8) translate(200, 50)" />
  </g>
  <!-- Hills -->
  <path d="M-100 468 Q 213 374, 533 468 T 1380 468 V 720 H -100 Z" fill="#A2D149"/>
  <path d="M-100 520 Q 256 462, 612 520 T 1380 520 V 720 H -100 Z" fill="#558B2F"/>
  <!-- Ground -->
  <rect x="0" y="468" width="1280" height="252" fill="#5D4037"/>
  <line x1="0" y1="468" x2="1280" y2="468" stroke="#2E1C18" stroke-width="4"/>
  <rect x="100" y="550" width="40" height="2" fill="white" opacity="0.1"/>
  <rect x="150" y="600" width="6" height="4" fill="black" opacity="0.2" rx="2"/>
  <!-- CHARACTER: Hierarchical Sync -->
  <g transform="translate(640, 468)">
      <g transform="translate(0, -100.8)"> <!-- Hip position at -7U -->
          <!-- Legs -->
          <g transform="rotate(-10)"><rect x="-8" y="0" width="16" height="50.4" rx="8" fill="#D05A5A"/><g transform="translate(0, 50.4) rotate(30)"><circle cx="0" cy="0" r="9" fill="#D05A5A"/><rect x="-6" y="0" width="12" height="50.4" rx="6" fill="#D05A5A"/><path d="M-6 50.4 L20 50.4 L10 60 L-6 50.4 Z" fill="#D05A5A"/></g></g>
          <g transform="rotate(15)"><rect x="-8" y="0" width="16" height="50.4" rx="8" fill="#E86A6A"/><g transform="translate(0, 50.4) rotate(-10)"><circle cx="0" cy="0" r="9" fill="#E86A6A"/><rect x="-6" y="0" width="12" height="50.4" rx="6" fill="#E86A6A"/><path d="M-6 50.4 L20 50.4 L10 60 L-6 50.4 Z" fill="#E86A6A"/></g></g>
          <!-- Body -->
          <g transform="translate(0, -10)">
              <path d="M10 -40 C 40 -90, 20 -130, 50 -170" stroke="#FF7A9A" stroke-width="20" fill="none" stroke-linecap="round"/>
              <circle cx="50" cy="-170" r="40" fill="#FF7A9A"/>
              <path d="M70 -168 Q 150 -168, 140 -148 Q 105 -155, 70 -158 Z" fill="#FF8845"/>
              <circle cx="57" cy="-174" r="13" fill="white"/><circle cx="57" cy="-174" r="7" fill="black"/>
              <ellipse cx="-20" cy="-40" rx="72" ry="65" fill="#FF7A9A"/>
              <ellipse cx="-10" cy="-40" rx="40" ry="30" fill="#E8658A"/>
          </g>
      </g>
  </g>
  <!-- UI -->
  <text x="40" y="60" font-family="monospace" font-size="32" font-weight="bold" fill="white" stroke="#000" stroke-width="1">SCORE: 1250</text>
  <text x="980" y="60" font-family="monospace" font-size="32" font-weight="bold" fill="white" stroke="#000" stroke-width="1">DIST: 45m</text>
  <text x="980" y="100" font-family="monospace" font-size="24" font-weight="bold" fill="white" stroke="#000" stroke-width="1">WIND: ➜</text>
</svg>
